# xmcd
#
# Track frame offsets:
#	150
#	5420
#	32140
#	53648
#	70760
#	97481
#	121861
#	140680
#	167249
#	215055
#	229830
#	252914
#	271268
#	294438
#
# Disc length: 4320 seconds
#
# Revision: 0
# Processed by: cddbd v1.5.1PL0 Copyright (c) Steve Scherf et al.
# Submitted via: dBpowerAMP V4.0
#
DISCID=d210de0e
DTITLE=Jan Kyks Skrzek - Górnik Blues
DYEAR=2000
DGENRE=Blues
TTITLE0=Introdukcja (Ork.Deta KWK 1 Maja)
TTITLE1=Jasiowe granie
TTITLE2=Granice szczescia
TTITLE3=Fifaczek blues
TTITLE4=Górnik blues
TTITLE5=To byl chlop
TTITLE6=Majster dajcie mi córke
TTITLE7=Hotel "Europejski"
TTITLE8=Rewelacja bluesa
TTITLE9=Czemu serce me tak bije
TTITLE10=Swing Jasia
TTITLE11=Majster dajcie mi córke
TTITLE12=Piekne etykietki
TTITLE13=Boogie woogie woman z Michalkowic
EXTD=
EXTT0=
EXTT1=
EXTT2=
EXTT3=
EXTT4=
EXTT5=
EXTT6=
EXTT7=
EXTT8=
EXTT9=
EXTT10=
EXTT11=
EXTT12=
EXTT13=
PLAYORDER=
